<svg width="699" height="1142" viewBox="0 0 699 1142" fill="none" xmlns="http://www.w3.org/2000/svg">
<rect width="695.393" height="1131.5" transform="translate(2 2)" fill="#E1E1E1"/>
<g filter="url(#filter0_f_39_825)">
<path d="M632.892 1132L155.392 1133.5C155.392 1128.67 154.392 1117.5 150.393 1111.5C146.393 1105.5 139.726 1100.67 136.893 1099L134.393 1097.5L131.893 1095L129.893 1094L128.893 1092.5L127.893 1090.5V1087.5L129.893 1085.5L144.393 1072.5C151.993 1063.3 149.726 1054.83 146.893 1052L145.393 1039.5H140.893L142.893 1033V1025L140.393 1018.5L134.893 1009.5L132.393 1003.5L134.893 998L138.393 991V980.5L136.893 970L132.393 962V955L117.393 925C109.393 921.8 106.393 909 105.893 903C95.8926 898.2 95.0592 883.333 95.8926 876.5C86.6926 862.9 70.0592 851.5 62.8926 847.5C52.0926 842.3 56.3926 837.333 59.8926 835.5C105.093 821.5 127.393 801.667 132.893 793.5L162.893 752.5C188.093 715.3 200.226 744.833 202.893 764.5L236.393 800.5H242.393L247.893 795.5V792H259.393V796.5H273.893L274.893 853H286.893L315.893 884V895.5C323.093 902.3 324.226 908 323.893 910L316.893 919.5V941L326.893 953.5H339.393L362.393 1018L406.393 1064C437.393 1086 446.393 1097.5 456.893 1106.5C465.293 1113.7 466.393 1126 465.893 1131H473.393V1129L472.393 1124L469.893 1116L463.893 1105.5L454.393 1095.5L399.893 1046.5L366.893 1012.5L364.893 1001.5L342.393 944L335.393 925.5L332.893 914L331.893 879L335.393 865.5L342.393 855V825.5L351.393 832.5V825.5L340.893 816.5V767.5H357.893V762H340.893L351.393 716.5H361.893V713.5H354.393V709H362.893V704.5H354.393V691.5H350.393V688.5H354.393L349.393 681.5H342.393V677.5H346.893L343.893 673H336.893V670.5H339.893L337.893 667H329.893V663.5H334.393L324.393 656H320.393L310.393 648.5H315.393L313.393 646.5H305.893L303.393 643H306.893V641H300.893L294.393 634.5H299.393L244.893 581C231.693 567.4 218.393 568.333 213.393 570.5V540L209.393 536V570.5H203.393V541H199.893C199.726 550.333 199.493 569.2 199.893 570C200.293 570.8 195.393 570.333 192.893 570V534.5H186.893V543H178.393L176.393 545L171.893 548L166.893 550L156.893 549L151.893 547L149.393 543C93.7926 524.2 71.2259 490.5 66.8926 476V457.5H68.8926V450.5C66.0926 435.3 55.3925 419.167 51.8926 416C40.8927 395 16.3925 384.5 7.39245 381C0.192451 378.2 1.72595 375.5 3.39269 374.5C16.226 371.833 41.8925 363 46.3927 356C51.3348 348.313 53.5594 344.5 54.8927 344C66.0927 340.8 72.5594 333.333 74.3927 330L93.3927 324H103.393L105.892 333V347C105.492 350.2 109.059 351 110.892 351C124.092 351.4 127.059 352.833 126.892 353.5C138.492 357.9 148.726 365.333 152.392 368.5H172.392L193.892 382.5V386.5L198.892 389.5V408.5H220.392V399.5H238.392L247.392 408.5L245.392 411L261.392 424.5H269.892L297.892 444L321.392 458.5L323.892 464H326.892V467H330.892V469H334.892L340.392 477.5H345.392V483.5H343.892L355.392 507.5V523.5H357.392V532.5L352.392 538V544.5L355.392 551V559.5C355.392 560.3 358.392 566.167 359.892 569V559.5H367.892V567.5H370.392V565H373.892V557H378.392V559.5H381.392V553L390.892 546V543.5H394.892V528.5H398.392V525H394.892V521L388.892 514.5V485.5V481L390.892 476H396.392V465.5V462L397.892 459.5L400.892 458.5L405.392 450.5C405.392 443.5 408.726 440.833 410.892 440.5V431.5C416.892 424.7 422.392 428.333 424.392 431L440.392 455.5V474L445.892 482.5H452.392C456.392 488.5 459.726 482.667 461.392 478.5H469.392V475V472H466.392V469L464.892 467C460.492 464.6 463.059 460.333 464.892 458.5H495.892L503.892 467V471H508.892V474H503.892C507.492 479.2 510.726 477.5 511.892 476V470H518.892V482.5L520.392 484.5V489L524.892 485.5H532.892L539.392 479.5L552.892 480H560.392C562.792 487.6 565.726 483.167 566.892 480H579.892L585.892 489V511V522H587.892V532.5L585.892 534.5V543.5L583.392 548.5L581.392 550.5L579.392 552L578.392 554.5V557.5L577.392 560.5L574.392 564L563.392 579V589L568.892 594L572.892 601.5V622L570.392 631.5V645L565.892 650C566.226 652.5 566.692 657.9 565.892 659.5C565.092 661.1 562.559 664.5 561.392 666V689.5L555.892 705L550.892 720.5V729L549.892 732.5L546.892 742C544.892 748 546.059 750.167 546.892 750.5C551.292 760.5 553.059 769 553.392 772C553.392 777 552.292 788.1 547.892 792.5C543.492 796.9 546.059 801 547.892 802.5C557.092 810.5 559.059 814.833 558.892 816C563.692 836 568.559 846.333 570.392 849L571.892 864.5C572.292 870.1 575.059 871.5 576.392 871.5C578.792 873.1 579.726 867.5 579.892 864.5H584.392V869.5L587.392 871.5H590.892L602.392 883H608.892L617.892 896.5L619.392 899.5V904C615.392 903.5 613.392 907 616.392 913C618.792 917.8 625.059 918 627.892 917.5L633.892 933.5L639.392 940L640.392 951L641.892 953.5V956H644.392V965.5H645.892L646.892 974H653.392V970.5L655.392 969.5C672.192 963.9 667.059 958.167 662.392 956C665.192 948.4 663.559 940.167 662.392 937C660.392 923.4 662.226 918.333 663.392 917.5H669.892C675.892 914.3 679.392 916.833 680.392 918.5V922.5L689.392 937V950C693.392 960.4 693.059 968 692.392 970.5C687.192 982.9 676.892 988 672.392 989C659.592 987.4 655.726 989 655.392 990C649.792 994.8 651.726 1002.33 653.392 1005.5C654.226 1005.83 655.592 1007 654.392 1009C651.592 1019 645.559 1026.83 642.892 1029.5C638.092 1032.3 636.892 1035.67 636.892 1037C638.892 1043 637.726 1048.17 636.892 1050C635.559 1052.5 632.292 1058.8 629.892 1064C627.492 1069.2 628.892 1072.5 629.892 1073.5L632.892 1079.5V1089C632.559 1090 632.392 1092.4 634.392 1094C639.192 1093.6 640.726 1094.83 640.892 1095.5C644.492 1097.9 644.726 1111.83 644.392 1118.5C643.892 1122.5 642.292 1129.1 639.892 1123.5C639.226 1122 636.892 1120.5 632.892 1126.5V1132Z" fill="#464646"/>
</g>
<g filter="url(#filter1_f_39_825)">
<path d="M566.893 2H228.393L228.893 31.5L219.893 48.5V81L206.393 104.5C206.793 122.9 198.893 133.5 194.893 136.5C176.493 156.1 148.893 171.667 137.393 177C122.593 180.2 118.226 193 117.893 199C108.693 201.8 110.059 207.5 111.893 210C121.093 219.6 121.059 240.333 119.893 249.5V262L103.393 297.5H98.3926V302.5L103.393 307V313L106.393 319L119.893 344L151.393 359.5V354H156.393L158.393 350.5H163.893H167.393L168.393 348.5L177.893 350V352.5C184.293 363.7 193.893 367.5 197.893 368V371.5C203.893 382.3 213.393 385 217.393 385H223.893L227.893 387L230.393 385H233.393L235.393 390H239.893V393.5L248.393 401.5L253.393 403V406.5L288.393 433.5L317.393 453.5L326.393 456L332.393 453.5H337.893L340.893 456L349.393 457.5L354.893 460L360.893 464C360.493 467.2 364.393 470.333 366.393 471.5C379.193 474.7 380.059 465.167 378.893 460L382.893 457.5L386.393 451.5V448.5L387.893 445L389.393 441L392.893 437L395.393 435.5L397.393 433.5L399.893 428.5L403.393 425.5L418.393 424L424.893 421.5L429.893 424L434.393 428.5L437.393 433.5H440.393L446.893 437L449.393 441V445L453.393 446L456.893 448.5L460.393 451.5L465.393 456H499.393L500.893 451.5L505.893 439.5L507.393 437L504.393 428.5L502.893 427.5L504.893 425.5L507.393 421.5L508.893 418L510.893 421.5H516.393H534.893V416.5L540.393 410.5L542.393 406.5L545.893 410.5V416.5L554.393 418L558.893 419.5L561.393 421.5L566.393 425.5C563.193 430.7 570.059 436.333 573.893 438.5C572.693 441.7 575.726 444.833 577.393 446C576.193 450.4 580.559 452.833 582.893 453.5C592.093 450.7 590.726 442.333 588.893 438.5C591.226 440.333 594.493 442.6 588.893 437C583.293 431.4 587.559 427 590.393 425.5L595.893 421.5L597.893 416.5L602.393 413L606.893 408.5L611.893 405C612.893 402.167 614.893 396.3 614.893 395.5C614.893 394.7 615.893 389.5 616.393 387L619.393 369V364L624.393 361L632.893 359L635.893 357.5L641.393 355L648.893 349.5L665.393 330.5L673.893 321L676.393 312C679.593 313.6 683.393 300.333 684.893 293.5L688.893 289L691.393 285V280.5L697.393 275.5V260.5L688.893 249.5L672.393 240.5C666.393 240.1 660.893 236.333 658.893 234.5L654.893 237H648.893H643.393H639.393L632.893 234.5L630.393 231L627.893 227.5H624.393L620.893 224.5L619.393 220.5C618.893 219.667 617.893 217.8 617.893 217C617.893 216.2 616.893 214 616.393 213L611.893 208.5L602.393 202L603.893 198L602.393 193L599.893 187.5V181.5V174.5V163.5L595.893 154L591.893 145V135V128.5L588.893 121.5L586.393 113.5V105.5L576.393 65L570.393 63L566.893 48.5L568.893 46L571.893 31.5L564.393 11L566.893 2Z" fill="#464646"/>
<path d="M566.893 2H228.393L228.893 31.5L219.893 48.5V81L206.393 104.5C206.793 122.9 198.893 133.5 194.893 136.5C176.493 156.1 148.893 171.667 137.393 177C122.593 180.2 118.226 193 117.893 199C108.693 201.8 110.059 207.5 111.893 210C121.093 219.6 121.059 240.333 119.893 249.5V262L103.393 297.5H98.3926V302.5L103.393 307V313L106.393 319L119.893 344L151.393 359.5V354H156.393L158.393 350.5H163.893H167.393L168.393 348.5L177.893 350V352.5C184.293 363.7 193.893 367.5 197.893 368V371.5C203.893 382.3 213.393 385 217.393 385H223.893L227.893 387L230.393 385H233.393L235.393 390H239.893V393.5L248.393 401.5L253.393 403V406.5L288.393 433.5L317.393 453.5L326.393 456L332.393 453.5H337.893L340.893 456L349.393 457.5L354.893 460L360.893 464C360.493 467.2 364.393 470.333 366.393 471.5C379.193 474.7 380.059 465.167 378.893 460L382.893 457.5L386.393 451.5V448.5L387.893 445L389.393 441L392.893 437L395.393 435.5L397.393 433.5L399.893 428.5L403.393 425.5L418.393 424L424.893 421.5L429.893 424L434.393 428.5L437.393 433.5H440.393L446.893 437L449.393 441V445L453.393 446L456.893 448.5L460.393 451.5L465.393 456H499.393L500.893 451.5L505.893 439.5L507.393 437L504.393 428.5L502.893 427.5L504.893 425.5L507.393 421.5L508.893 418L510.893 421.5H516.393H534.893V416.5L540.393 410.5L542.393 406.5L545.893 410.5V416.5L554.393 418L558.893 419.5L561.393 421.5L566.393 425.5C563.193 430.7 570.059 436.333 573.893 438.5C572.693 441.7 575.726 444.833 577.393 446C576.193 450.4 580.559 452.833 582.893 453.5C592.093 450.7 590.726 442.333 588.893 438.5C591.226 440.333 594.493 442.6 588.893 437C583.293 431.4 587.559 427 590.393 425.5L595.893 421.5L597.893 416.5L602.393 413L606.893 408.5L611.893 405C612.893 402.167 614.893 396.3 614.893 395.5C614.893 394.7 615.893 389.5 616.393 387L619.393 369V364L624.393 361L632.893 359L635.893 357.5L641.393 355L648.893 349.5L665.393 330.5L673.893 321L676.393 312C679.593 313.6 683.393 300.333 684.893 293.5L688.893 289L691.393 285V280.5L697.393 275.5V260.5L688.893 249.5L672.393 240.5C666.393 240.1 660.893 236.333 658.893 234.5L654.893 237H648.893H643.393H639.393L632.893 234.5L630.393 231L627.893 227.5H624.393L620.893 224.5L619.393 220.5C618.893 219.667 617.893 217.8 617.893 217C617.893 216.2 616.893 214 616.393 213L611.893 208.5L602.393 202L603.893 198L602.393 193L599.893 187.5V181.5V174.5V163.5L595.893 154L591.893 145V135V128.5L588.893 121.5L586.393 113.5V105.5L576.393 65L570.393 63L566.893 48.5L568.893 46L571.893 31.5L564.393 11L566.893 2Z" stroke="#050505"/>
</g>
<g filter="url(#filter2_d_39_825)">
<g filter="url(#filter3_d_39_825)">
<path d="M411.534 2V69.5C411.534 72.1667 411.034 78.7 409.034 83.5C407.034 88.3 398.534 103.167 394.534 110C393.534 111.833 391.634 118.2 392.034 129C392.434 139.8 392.867 194.5 393.034 220.5C392.867 222.167 393.834 227.5 399.034 235.5C404.234 243.5 413.867 254.833 418.034 259.5C419.867 261.333 423.834 267.8 425.034 279M425.034 279V310L422.534 320.5C422.2 321 421.434 323.4 421.034 329L417.45 492.5M425.034 279C427.534 275.167 433.434 266.9 437.034 264.5C441.534 261.5 444.034 252.5 450.534 245.5L478.034 216.5C478.867 216 480.434 212.8 480.034 204V190.5C479.7 188.833 479.934 184.2 483.534 179L493.534 161.5C493.867 161.5 494.534 159 494.534 149L495.534 128C496.2 123.833 497.934 115.2 499.534 114L512.534 79.5L525.534 46.5C526.534 44.6667 528.534 37.5 528.534 23.5V2M425.534 747V732L425.034 727L423.534 722.5L422.034 718.5L419.034 713.5L408.034 701.5L398.534 688.5L394.534 681L392.534 677L388.534 669L387.034 664.5V659V656L387.534 651.5L392.534 635C395.734 622.6 396.534 618.833 396.534 618.5L397.034 568.5L397.534 564L398.034 560.5L400.534 556L405.534 549L411.534 540.5L415.034 528.5L416.034 523L416.534 518.5L417.034 511.5L417.45 492.5M425.534 747L425.034 772L426.534 781L427.034 788V796L427.534 802L429.034 811L430.534 819.5V826.5L429.034 835.5L428.034 844V854.5V865.5L426.534 881L423.534 904.5L421.034 915V923.5V931L423.034 936.5L428.034 950.5L438.034 971L441.034 975.5L446.534 981L453.534 987.5L460.534 994L467.534 1000.5L481.034 1020.5L490.034 1032.5L496.534 1039.5L507.034 1053.5L512.534 1062L517.034 1072.5L520.534 1084L525.034 1101.5L529.034 1123L530.534 1133M425.534 747L432.534 743.5C439.367 739 453.534 735.6 457.534 754C459.7 758.167 466.734 766.3 477.534 765.5H532.534H553.534M425.534 747L411.034 752.5C408.534 753.5 406.534 754 404.534 754M370 741.5C369.5 759 357.534 784 357.534 784L357.034 786.5V790V829V876.5V901.5V941L374.034 989L376.534 1000.5L374.034 1032.5V1068V1097.5V1133M341.534 593V521.5C341.7 519.5 341.234 514.3 338.034 509.5L331.534 491.5C330.367 488.667 328.034 481.1 328.034 473.5C328.034 465.9 328.034 440 328.034 428V344V304.5C327.867 303.5 328.234 300.7 331.034 297.5C333.834 294.3 334.2 289.5 334.034 287.5C333.7 286.167 333.434 282.8 335.034 280C337.034 276.5 338.534 279.5 338.534 269.5C338.534 261.5 338.534 223.167 338.534 205L337.034 104.5L336.034 2M417.45 492.5C417.145 488.667 420.034 482 437.534 482M437.534 482L448.034 481M437.534 482L467.034 478.5L480.534 475L497.534 470.5L507.534 469L514.534 468.5H518.034H521.534L526.534 469L538.534 470L548.534 471L559.534 472L569.534 473.5L579.034 475.5L587.534 478" stroke="#FFFCFC" stroke-width="2" shape-rendering="crispEdges"/>
</g>
</g>
<g filter="url(#filter4_d_39_825)">
<path d="M111 295V316.5L112.5 321L116.5 331.5L119 337L125.5 342L129.5 345C131.572 346.621 135.435 348.359 140 347.973M211 341H206.5M211 341V345.5M211 341H220M211 341V301.5M211 375.5L207.5 373.5L205.5 372L198.5 364.023M211 375.5V372M211 375.5L214 376.5H220.5M179.5 341H185.5M179.5 341H160M179.5 341C179.488 341.047 179.489 341.107 179.5 341.179M185.5 341L211 372M185.5 341H189.5M211 372L276.5 372.5M211 372V368M191 341L199 351M191 341H189.5M191 341H198.5M211 366L199 351M211 366V368M211 366V361M202 341L211 352.5M202 341H206.5M202 341H199M211 352.5V346.75M211 352.5V353.5M206.5 341L211 346.75M211 346.75V345.5M211 360L199 344.5M211 360V361M211 360V357M199 341V351M199 341H198.5M199 351L198.5 364.023M276.5 376.5H252H230M211 368H246M211 361H265.5M211 357H276.661M211 357V353.5M211 353.5H276.5M211 345.5H267.5M267.5 341V361M267.5 341H265.5M267.5 341C269.441 340.833 273.99 342.2 276.661 349M267.5 361H276.661H282.5M267.5 361H265.5M220 341L220.5 376.5M220 341H230M220 341V301.5L218.5 299V262.5M220.5 376.5H230M220.5 376.5V381H240.5M230 341V376.5M230 341V301.5M230 341H240.5M230 376.5V381M276.661 381V379M276.661 381L276.626 385M276.661 381H272M277.5 301.5V310L276.661 311.192V322M277.5 301.5H273M277.5 301.5H282M277.5 301.5L276.5 159.082M240.5 341V322H238.5V301.5M240.5 341H248M240.5 341V381M248 301.5V341M248 341L248.581 381M248 341H261M248.581 381H240.5M248.581 381H272M325.5 301.5H322M140 327H121V301.5H140M140 301.5V306M140 301.5H160M140 347.973C143.882 347.644 148.272 345.779 152.5 341H160M140 347.973V337M140 306H257.5M140 306V309M257.5 306V301.5V258M257.5 306V309M140 309H257.5M140 309V313.5M257.5 309V312M140 313.5H160V312.5H257.5M140 313.5V318M257.5 312.5V317.25M257.5 312.5V312M140 318H160M140 318V322M140 322H257.5M140 322V325M257.5 322V325M257.5 322V317.25M257.5 322H276.661M140 325H257.5M140 325V329M257.5 325V329.5M140 329L257.5 329.5M140 329V333.5M257.5 329.5V333.5M257.5 329.5H268.5M140 333.5H257.5M140 333.5V337M257.5 333.5V393H268.5M140 337H170.5M276.661 337H273M276.661 337V349M276.661 337V335.5M160 301.5V341M160 301.5H170.5M170.5 301.5H179.5M170.5 301.5V317.5M170.5 337V317.5M170.5 337H273M179.5 301.5V341.179M179.5 301.5H189.5M179.5 341.179C179.651 342.143 181.768 345.268 184 347.5L189.5 353.767M189.5 301.5V341M189.5 301.5H198.5M189.5 341V353.767M198.5 301.5V341M198.5 301.5H261M170.5 317.5L257.5 317.25M189.5 353.767L198.5 364.023M246 368H276.661H283.5M246 368L276.5 415.683M281.5 423.5L282.5 427L288.8 431.5M281.5 423.5L279.261 420M281.5 423.5L283.5 424.145M279.261 420L276.5 415.683M279.261 420H300M316.5 420L316.71 438.5M316.5 420H311.75M316.5 420V419M317 464L316.83 449M316.5 361V383.5M300.5 361V332M300.5 361H284.5M300.5 361H301.5M351.5 361V359L352.5 357.5V341M351.5 361H335.5M351.5 361H399M300.5 325H305.5M300.5 325V324M300.5 325V327M326 325H322M352.5 335.5L348 333.5L342.5 330.5L340 328L338.5 324L338 320L336.5 316L334.5 312.5L332 309L329 305L327 301.5L327.5 298L330.5 294L332 291.5L332.5 287V282L334 278L335.5 275.5C335.833 274.833 336.5 273.4 336.5 273C336.5 272.6 338.5 271.833 339.5 271.5L343 270L346.5 268L349.5 266.5C349.833 265.833 350.6 264.4 351 264C351.4 263.6 352.167 261.833 352.5 261L354.5 256V252.5L356 251C357.833 249 362.8 246.4 368 252C368.8 253.2 371.667 258.167 373 260.5C373.833 262 376.9 265.2 382.5 266H390L392 266.5L396 269.5L400 273C403.5 275.833 408.4 282.8 400 288L397.5 288.5L396 289H385.5C384.5 289.5 382.2 291.6 381 296L379 301.5M352.5 335.5V341M352.5 335.5L352.682 333.5M379 301.5L375 306.5L370 312L363.5 319L358.5 324M379 301.5L384 301.543M358.5 324L354.5 326.5L353 327.5V330L352.682 333.5M358.5 324L356.091 333.5M300.5 301.5H297M300.5 301.5V304.5M300.5 301.5H303.5M300.5 320H293M300.5 320H326M300.5 320V316M300.5 320V324M282 301.5V320H285.5M282 301.5H285.5M285.5 301.5V320M285.5 301.5H289M285.5 320H288M289 320V301.5M289 320H293M289 320H288M289 301.5H293M293 301.5V320M293 301.5H297M297 301.5V324M297 301.5L296.5 144M297 428.5L283.5 424.145M297 428.5V415.683M297 428.5L300 429.571M316.71 438.5H315L313 437L311 434.5L308.5 432.5L304 431L303.75 430.911M316.71 438.5L316.722 439.5M316.722 439.5L343 446M316.722 439.5L316.83 449M343 446L345 446.5H351.5M343 446L343.329 420M380 446.5H362M384.5 439.5C384.167 440.5 382.8 445.3 380 452.5C376.5 461.5 371.5 459 364.5 460C358.9 460.8 352.5 456.333 350 454L345 451.941M384.5 439.5L391.357 431.5M384.5 439.5L375.5 452.5M384.5 439.5L384 439.503M392.5 430L397.5 425L401.5 421.5L406 420H412.5L417.5 418H428M392.5 430V424.5M392.5 430L391.357 431.5M428 418L435.5 421.5L449 422.5L449.5 422.859M428 418L431 412.5M496.5 302.5L434 301.968M496.5 302.5H638H669.5M496.5 302.5V322M300.5 316H326M300.5 316V312.5M300.5 312.5H326M300.5 312.5V309M300.5 309H326M300.5 309V304.5M300.5 304.5H303.5M326 304.5H322M305.5 304.5V325M305.5 304.5H303.5M305.5 304.5H309M305.5 325H311.5M311.5 304.5V325M311.5 304.5H316.5M311.5 304.5H309M311.5 325H316.5M316.5 304.5V325M316.5 304.5H322M316.5 304.5V301.5M316.5 325H322M322 304.5V325M322 304.5V301.5M303.5 301.5V304.5M303.5 301.5H309M309 301.5V304.5M309 301.5H316.5M316.5 301.5H322M257.5 312H273M273 312V301.5M273 312V337M273 301.5H268.5M276.661 322V325M276.661 329.5H268.5M276.661 329.5V335.5M276.661 329.5V325M261 301.5V341M261 301.5H265.5M261 341H265.5M265.5 301.5V341M265.5 301.5H267M268.5 301.5V329.5M268.5 301.5H267M276.661 349L282.5 361M276.661 349V351.5M282.5 361H284.5M282.5 361C283.139 362.615 284.474 365.23 286.659 368M297 376.5C293.218 374.609 290.255 372.103 288 369.593M297 376.5V372.25M297 376.5H376.5M297 376.5V379M288 320V324M291 332V331H288V327M291 332H297M291 332C291 334.8 289.333 335.5 288.5 335.5H283.5M297 332V327M297 332H300.5M297 332V339M288 327H297M288 327V325M297 327V324M297 327H300.5M288 324H297M288 324V325M297 324H300.5M300.5 327V332M276.661 335.5H283.5M283.5 335.5V343H289M289 343C289 341.5 289.6 338.6 292 339H297M289 343V344.5M290.5 365V356.5M276.661 365H376.5M276.661 365V351.5M276.661 365V374.297M276.661 325H288M297 339V344.5M289 344.5H292.5M289 344.5V351.5M297 344.5H292.5M297 344.5V356.5M292.5 344.5V356.5M292.5 356.5H290.5M292.5 356.5H297M290.5 356.5V354.5H289V351.5M297 356.5V368M276.661 351.5H284.5M289 351.5H284.5M284.5 351.5V361M286.659 368C287.075 368.527 287.521 369.06 288 369.593M286.659 368H283.5M276.661 379V374.297M276.661 379H281.5M288 369.593V374.297M288 374.297V379H285.75M288 374.297H276.661M283.5 368V379M283.5 379H285.75M283.5 379H281.5M283.5 424.145V407M283.5 407C284.333 406 286 403.1 286 399.5L285.921 393M283.5 407C282.833 406.333 281.5 403.9 281.5 399.5V379M285.75 379L285.921 393M253.5 399.5H268.5M335.5 399.5V361M335.5 399.5H313M335.5 399.5V419H316.5M335.5 361H322H306M297 381H300M297 381V379M297 381V408M610 381V377.5C608 366.3 604.167 375.167 602.5 381M610 381H612V387.5H608M610 381H608M301.5 361V381M301.5 361H306M301.5 381H300M301.5 381H303.75M306 361V381M306 381H303.75M306 381H308.25M310.5 361.5V381M310.5 381H308.25M310.5 381H313M297 368H376.5M297 368V372.25M297 372.25H376.5M300 381V399.5M300 399.5H303.75M300 399.5H295M300 399.5V420M303.75 381V399.5M303.75 399.5H307M308.25 381V399.5M308.25 399.5H313M308.25 399.5H307M313 381V399.5M313 381H344.75M316.5 383.5H326M316.5 383.5V392M316.5 392H326M316.5 392V395.5M316.5 395.5H326M316.5 395.5V405.5M276.5 399.5H290.5M276.5 399.5L276.613 386.5M276.5 399.5H273.5M276.5 399.5V408M265.5 361V385M265.5 393V385M285.921 393L290 390.5H295M285.921 393H273.5M295 390.5V379H297M295 390.5V399.5M295 399.5H290.5M290.5 399.5V388.5M291.5 379L290.5 381V388.5M276.613 386.5H287.5L290.5 388.5M276.613 386.5L276.626 385M265.5 385H268.5M276.626 385H273.5M268.5 385V393M268.5 385H272M268.5 393H273.5M268.5 393V399.5M272 381V385M272 385H273.5M273.5 385V393M273.5 393V399.5M273.5 399.5H268.5M276.5 415.683H297M276.5 415.683V412.5M297 415.683V412.5M276.5 412.5H297M276.5 412.5V408M297 412.5V408M276.5 408H297M300 420V429.571M300 420H303.75M307 399.5V420M307 420H303.75M307 420H311.75M300 429.571L300.5 429.75M303.75 420V430.911M303.75 430.911L300.5 429.75M311.75 420V436V438M316.83 449L311.75 446V438M288.8 431.5L300 439.5L300.5 439.643M288.8 431.5L311.75 438M300.5 429.75V439.643M300.5 439.643L303.5 440.5L311 442.5L316.5 444.5L323.5 445.5L341.5 450.5L345 451.941M395.5 301.64V345.5M395.5 301.64L405 301.721M395.5 301.64L386 301.56M405 301.721V345.5M405 301.721L434 301.968M405 361V357M478.5 361H431.5M352.5 341H359.5M376.5 341L369.5 331.5L367.5 329.5M376.5 341H371.5M376.5 341V357M376.5 341L378 340.5M376.5 381H379.5M376.5 381H370.5M376.5 381V374M360.5 322.5L364 326M364 330L371.5 341M364 330L366 341M364 330L370.5 323.5M371.5 341H366M366 341H359.5M364 326L359.5 331V333.5M364 326L376.5 310.714M364 326L367.5 329.5M359.5 341V333.5M352.682 333.5H356.091M359.5 333.5H356.091M384 301.543L376.5 310.714M384 301.543L386 301.56M376.5 317.5L370.5 323.5M376.5 310.714V322M376.5 324.5V322M376.5 324.5L380.411 333M376.5 324.5L415 325M390 353.842L380.411 333M376.5 322H381M415 361V345.5M415 361H431.5M415 361H410.75M381 322H415V325M381 322V324.558L383 329.212M405 345.5H390L388.281 341.5M405 345.5H415M405 345.5V349.5M415 345.5V341.5M376.5 357H386M376.5 357V374M405 357H386M405 357V349.5M386 357L395.5 349.5H405M386 357L378 340.5M378 340.5L370.5 323.5M367.5 329.5L380.411 333M386 301.56V324.623M415 325V329.212M383 329.212H415M383 329.212L384.843 333.5M415 329.212V333.5M384.843 333.5H415M384.843 333.5L386.562 337.5M415 333.5V337.5M386.562 337.5H415M386.562 337.5L388.281 341.5M415 337.5V341.5M388.281 341.5H415M344.5 405.5L343.5 406.5L343.424 412.5M344.5 405.5L344.75 381M344.5 405.5H316.5M344.5 405.5H392.5M344.75 381H356.5M316.5 419V405.5M343.329 420H351.5M343.329 420L343.424 412.5M351.5 420V418H354.5M351.5 420V446.5M392.5 418H354.5M343.424 412.5H348M392.5 411H349.5V412.5H348M356.5 381H366M356.5 381V386M356.5 446.5H354.5M356.5 446.5H362M356.5 446.5V386M347.5 446L348 412.5M351.5 446.5H354.5M354.5 446.5V418M362 446.5V439.643M362 424.5V398.5L366 398.566M362 424.5H392.5M362 424.5V431.5M392.5 424.5V400M362 431.5V439.643M362 431.5H388.5M391.357 431.5H388.5M362 439.643L384 439.503M345 451.941L366 452.326M375.5 452.5L370.5 451.941M375.5 452.5L375 398.713M366 398.566V452.326M366 398.566L370.5 398.639M366 398.566V381M366 452.326L370.5 451.941M370.5 451.941V398.639M370.5 398.639L375 398.713M370.5 398.639V381M375 398.713L379.5 398.787M379.5 398.787L380 447M379.5 398.787L384 398.861M379.5 398.787V381M384 439.503V398.861M384 398.861L392.5 399V400M384 398.861V381M388.5 431.5V381M388.5 381H384M388.5 381H399M384 381H379.5M370.5 381H366M356.5 386H411M411 381V400H392.5M411 381H422.5M411 381H406.5M411 381L410.75 361M417.5 391.5L422.5 381M422.5 381H427M422.5 381V370M474.5 381H471.5M474.5 381V345M474.5 381H478.5M434 407V381M434 407L431 412.5M434 407L437.5 401.5V381M434 381V301.968M434 381H431.5M434 381H437.5M442.5 342H422.5V370M442.5 342L442 381M442.5 342H449.5M442 381H454M442 381H437.5M449.5 342V381V413.5M449.5 342H455M455 342V381M455 342H463.5M455 381H463.5M455 381H454M463.5 342V381M463.5 342H467.5M463.5 381H467.5M463.5 381V389.5H472L482.5 401L488.5 398.5L490.5 392L491.5 389.5L493.5 387L495 385.5L498.5 384.875L499.5 384M467.5 342V381M467.5 342H471.5M467.5 381H471.5M471.5 342H474.5V345M471.5 342V381M481.5 381L484 369L487.5 362.5L490.5 357L492.5 354.5L494.5 354.171M496.5 353.842V358H495V365M496.5 353.842L494.5 354.171M496.5 353.842V345.5M496.5 353.842H500M494.5 354.171L487.5 344.5L478.5 344.846M474.5 345L478.5 344.846M478.5 344.846V370M478.5 381V370M478.5 381H502.5M427 381V365.5H431.5M427 381H431.5M431.5 361V381M422.5 370H406.5M422.5 370H446.5M478.5 370H446.5M399 370V361M399 370V374M399 370H406.5M399 361H406.5M399 381V374M399 381H406.5M376.5 374H399M406.5 370V381M406.5 370V361M406.5 361H410.75M514 361V364.5M514 361H514.5M514 361L509.25 356.143M514 364.5L529.5 378C530.701 378.643 532.27 379.247 534 379.577M514 364.5V365M525 381L514 369V365M525 381L532.5 375M525 381L534 396.5H536.5M525 381H536.5M525 381H502.5M549.5 361H561M549.5 361L548.167 369M549.5 361H546M561 361L568.5 351.5C566.167 353.667 562.9 356.5 568.5 350.5C574.1 344.5 578.167 343 579.5 343H591.5L592.5 343.889M561 361L553.5 372.053M561 361H569.5M541.5 381H536.5M541.5 381V384.875M541.5 381C542.611 381.288 543.814 381.054 545 380.523M541.5 381H562M519 361L532.5 375M519 361H514.5M519 361H533.5M532.5 375L534 373.5M534 373.5V361M534 373.5V379.577M534 373.5H546.635M534 361H537.5M534 361H533.5M534 379.577C535.118 379.791 536.304 379.89 537.5 379.813M546.635 373.5C547.155 372.485 547.616 371.324 548 370L548.167 369M546.635 373.5C545.581 375.553 544.278 377.007 542.849 378M537.5 361V369M537.5 361H538M537.5 379.813C539.324 379.694 541.173 379.165 542.849 378M537.5 379.813V369M542.5 361L542.849 378M542.5 361H542M542.5 361H546M537.5 369H548.167M514.5 361V353.5M514.5 342V345.5M514.5 342H516.5M514.5 342H512M533.5 342H534M533.5 342H529.75M533.5 342V352M533.5 361V352M496.5 342V345.5M496.5 342H500M496.5 342V334M514.5 345.5H504M514.5 345.5V349.671M504 345.5H496.5M504 345.5V349.671M504 353.842H507L509.25 356.143M504 353.842V349.671M504 353.842H500M504 349.671H509.25M514.5 349.671H509.25M514.5 349.671V353.5M509.25 349.671V353.5M509.25 356.143V353.5M509.25 353.5H514.5M500 342V353.842M500 342H503.5M500 342V322M492.5 322H496.5M496.5 322H500M496.5 322V334M516.5 322V332M516.5 322H521M516.5 322H512M516.5 342V332M516.5 342H521M516.5 332H573M573 332V327M573 332V336.5M534 322V342M534 322H538M534 322H529.75M534 342H538M538 322V342M538 322H542M538 342H542M538 342V361M542 322V342M542 322H546M542 342H546M542 342V361M546 322V342M546 322H550.5M546 342H550.5M546 342V361M550.5 322V342M550.5 322H563M550.5 342H553.5M550.5 342V352M563 322H573V327M563 322V342M563 342H563.5L573 339.5V336.5M563 342H553.5M573 327H553.5V336.5M553.5 342V336.5M553.5 342V347.5M553.5 336.5H573M521 322V342M521 322H525.5M521 342H525.5M525.5 342V322M525.5 342H529.75M525.5 322H529.75M529.75 322V342M512 322V342M512 322H508M512 342H508M508 342V322M508 342H503.5M508 322H503.5M503.5 322H500M503.5 322V334M503.5 342V334M496.5 334H503.5M553.5 372.053L551.5 375C550.232 376.651 547.658 379.333 545 380.523M553.5 372.053V356M538 361H542M533.5 352H549M550.5 352L553.5 347.5M550.5 352H549M553.5 347.5V356M549 352V356.143L553.5 356M495 365V382L494 396L481 445.5L454 426.094M495 365H514M578 361V345.5H580.5M578 361H586.5M578 361V381M578 361H573.75M586.5 361V345.5H580.5M586.5 361V381M586.5 361H590.5M578 381H580.5M578 381H573.75M580.5 345.5V381M580.5 381H583.5M586.5 381H590.5M586.5 381H583.5M569.5 361V372.053H590.5M569.5 361H573.75M590.5 372.053V361M590.5 372.053V381M590.5 361H592.5M590.5 381H594M573.75 361V381M573.75 381H566.5M592.5 361V354.5M592.5 361H598.5M592.5 343.889L596 347L610 361H606M592.5 343.889V352M592.5 354.5L598.5 361M592.5 354.5V352M598.5 361H606M592.5 352H597L606 361M602.5 381H601.5M602.5 381H604.5M594 396.5H583.5M594 396.5V397.5H596V399H607L612 392V388M594 396.5V396M594 381V387.5M594 381H597M583.5 381V388.75M583.5 396.5V388.75M583.5 396.5L583 397.5V400.5M583.5 396.5H571M583.5 388.75H594M594 388.75V387.5M594 388.75V396M594 387.5H597M601.5 387.5V390.5H604.5M601.5 387.5H597M601.5 387.5V381M597 381V387.5M597 381H601.5M608 381V387.5M608 381H604.5M608 387.5H607.5V390.5H604.5M604.5 381V390.5M536.5 381V384.875M536.5 396.5H541.5M536.5 396.5V392M541.5 396.5V392M541.5 396.5H546.635M536.5 392H541.5M536.5 392V388.75M541.5 392V388.75M536.5 388.75H541.5M536.5 388.75V384.875M541.5 388.75V385.5M536.5 384.875H541.5M541.5 384.875V385.5M541.5 385.5H545V380.523M296.5 144H335.5M296.5 144L276.5 159.082M257.5 173.41L235.5 190C234.667 190.667 231.6 193.2 226 198C220.4 202.8 218.667 208.667 218.5 211V222.5M257.5 173.41V222.5M257.5 173.41L276.5 159.082M218.5 222.5H257.5M218.5 222.5V243M336.5 222.5H297H257.5M257.5 222.5V252M218.5 243H336.5M218.5 243V252.5M218.5 252.5L257.5 252M218.5 252.5V262.5M257.5 252V254M257.5 254H335.5M257.5 254V258M257.5 258H335.5M218.5 262.5H335.5M267 301.5V166.246M546.635 396.5C546.635 400.403 546.999 403.712 548.167 406.25M546.635 396.5H557.5M562 411.5L563 414.5L563.5 416L565 417.5L568 418L568.5 422.5H569.5L573.75 429L576 430.5H578H580.5V428L581.5 425L582.5 413L585.5 414.5C586.167 415.5 587.5 417.2 587.5 416C587.5 414.8 587.5 412.5 587.5 411.5L589 410.5M562 411.5H557.5M562 411.5V396.5M589 410.5V406L587.5 404.5H594V396M589 410.5L585 406L583 405.5V400.5M548.167 406.25C549.392 408.915 551.501 410.732 555 411.5H557.5M548.167 406.25V403H550.5V399H557.5M548.167 406.25H557.5M557.5 399V396.5M557.5 399V406.25M557.5 396.5H562M557.5 411.5V406.25M566.5 381V388M566.5 381H562M566.5 396.5V392.5M566.5 396.5H562M566.5 396.5V412.5L568.75 414.25M566.5 396.5H568.75M566.5 388H569.5V392.5H566.5M566.5 388V392.5M562 381V396.5M499.5 384L502.5 381M499.5 384L503 392M482.5 401.5L481.5 402.5L481 419C480.667 421.167 479.1 426.2 475.5 429C474.579 429.526 471.997 430.405 468 430.556M461.5 415.5V420.5M461.5 420.5V428.5L464.5 430.5C465.764 430.584 466.933 430.596 468 430.556M461.5 420.5L468 430.556M454 381V413.5M454 426.094L449.5 422.859M454 426.094V413.5M449.5 422.859V413.5M431 412.5L441.5 416.5V413.5H449.5M454 413.5H449.5M446.5 370V383.5M571 396.5H568.75M571 396.5V400.5M568.75 414.25L571 416V400.5M568.75 414.25V396.5M571 400.5H583" stroke="#FFFCFC" stroke-width="0.5" shape-rendering="crispEdges"/>
</g>
<path d="M345 326L354.5 326.5L356.5 326L359 325L361 324L366 319.5L368 317.5L369.5 316L370.5 314.5L372.5 312.5L374.5 310.5L376 308.5L377.5 307L379 305L380.5 303.5L381.5 302L382 300L383 297.5L383.5 295.5L384.5 293.5L385.5 292L386 291L388 289.5L389.5 289H392.5L394.5 288.5L396.5 286.833L397.5 285.5L398 284.333L396.5 283L396 281C395.667 280.5 395.5 279.5 395.5 278C395.5 277.434 395 275.5 396.5 275L398 272.5L397.5 271L396 270L394.5 269.5L393 269L390.5 268.5H386.5L379.5 267L375.5 264L372.5 257.5L368.5 252.5L365.5 251L361.5 252L360 253L359 256L358.5 261.5L354.5 267L352 269L347.5 272.5L344.5 273.5L341 275.5L340 277.5L339 279.5L338 281V283.5L337.5 287.5L337 292L336.5 296L333.5 298.5L332.5 300L332 302L333.5 304.5L335 306.5L336.5 308.5L339 311L340 313L341 316L342.5 319.5L343.5 322.5L344.5 325C344.833 325.833 345 324.5 345 326Z" fill="#D9D9D9"/>
<g filter="url(#filter5_d_39_825)">
<path d="M289.952 610L303.807 622.469M289.952 610L291.452 610.012M289.952 610L286.452 607.5M296.952 610.057L347.452 655L347.952 654.439M296.952 610.057L291.452 610.012M296.952 610.057C296.952 610.033 296.952 607.645 296.952 604.789M296.952 610.057L300.702 610.088M377.952 610.718L339.952 655L334.452 650.05M377.952 610.718L386.846 610.791M377.952 610.718L372.452 610.673M334.452 650.05L329.952 646M334.452 650.05L358.952 622.469M369.452 610.649L387.452 627.023M369.452 610.649L366.475 614M369.452 610.649L367.452 610.633M369.452 610.649L372.452 610.673M329.952 646L358.952 614.5M329.952 646L326.452 642.889M358.952 614.5V610.563M358.952 614.5V620.5M358.952 614.5L377.452 630.629M358.952 610.563L358.452 610.559M358.952 610.563L362.952 610.596M358.952 622.469V620.5M358.952 622.469L366.475 614M320.952 638L317.174 634.5M320.952 638L339.952 615.741M320.952 638L326.452 642.889M320.952 638L317.452 641.805M344.452 610.469L338.952 610.4M344.452 610.469H347.452M344.452 610.469L339.952 615.741M303.807 622.469L307.452 625.75M303.807 622.469L312.952 611.406M303.807 622.469L300.452 626.5M313.952 610.196L320.952 610.253M313.952 610.196L312.952 611.406M313.952 610.196L304.452 610.118M313.952 610.196L324.952 599H333.952M307.452 625.75L310.452 628.45M307.452 625.75L319.948 611.406M307.452 625.75L303.952 629.651M320.952 610.253L319.948 611.406M320.952 610.253L324.952 610.286M310.452 628.45L314.452 632.05M310.452 628.45L325.833 611M326.452 610.298L325.833 611M326.452 610.298L324.952 610.286M326.452 610.298L329.452 610.322M314.452 632.05L333.952 610.359M314.452 632.05L317.174 634.5M314.452 632.05L310.952 635.953M333.952 610.359L338.952 610.4M333.952 610.359V599M333.952 610.359L329.452 610.322M317.174 634.5L338.952 610.4M317.174 634.5L313.952 638.654M312.952 611.406L353.952 647.706M353.952 647.706L350.452 651.633M353.952 647.706L354.581 647M353.952 647.706L381.952 691.806M304.452 610.118L350.452 651.633M304.452 610.118V604.789M304.452 610.118L300.702 610.088M350.452 651.633L347.952 654.439M350.452 651.633L377.452 694.556M319.948 611.406L357.254 644M357.254 644L359.952 640.972M357.254 644L354.581 647M347.452 610.469L350.452 613.086M347.452 610.469L353.952 610.522M358.952 620.5L350.452 613.086M358.952 620.5L374.452 634.773M325.833 611L341.201 624.5M359.952 640.972L341.201 624.5M359.952 640.972L361.722 638.986L363.492 637M341.201 624.5L350.452 613.086M339.952 615.741L363.492 637M363.492 637L386.846 610.791M386.846 610.791L392.952 610.863M386.846 610.791L392.952 605L387.452 604.912M404.452 611C404.058 611.887 403.398 613.116 402.488 614.5M404.452 611H412.952M404.452 611L401.231 610.962M404.452 611C404.609 610.136 405.24 608.799 406.616 607.5M414.452 604H417.702M414.452 604C413.027 604.238 411.787 604.584 410.712 605M414.452 604L414.702 575M391.952 624.5C390.811 625.104 389.27 625.971 387.452 627.023M391.952 624.5L377.952 611M391.952 624.5C395.908 622.406 399.04 619.195 401.231 616.285M354.581 647C356.647 645.712 359.236 644.105 362.094 642.341M451.952 604V599.5M451.952 604H446.452M451.952 604V642M373.452 635.38C373.786 635.178 374.119 634.975 374.452 634.773M373.452 635.38C372.454 635.987 371.451 636.599 370.452 637.209M373.452 635.38L377.452 630.629M373.452 697L377.452 694.556M373.452 697L359.452 673.633M373.452 697L373.335 701.5M347.952 654.439L349.786 657.5M418.452 669.5L422.452 667M418.452 669.5L414.452 671.944M418.452 669.5L413.422 661.531M377.452 694.556L381.952 691.806M377.452 694.556L381.952 701.5M381.952 691.806L385.725 689.5M381.952 691.806L387.952 701.5M357.868 644.956L385.725 689.5M385.725 689.5L389.452 687.222M385.725 689.5L392.452 701.5M362.094 642.341L389.452 687.222M362.094 642.341C363.422 641.521 364.809 640.668 366.228 639.796M389.452 687.222L394.452 684.167M389.452 687.222L397.452 701.5M366.228 639.796L376.218 655.5M366.228 639.796C367.613 638.946 369.028 638.078 370.452 637.209M394.452 684.167L402.088 679.5M394.452 684.167L391.952 680.236M376.218 655.5L380.515 653M376.218 655.5L356.077 668M376.218 655.5L379.716 661M374.452 634.773L384.452 650.5L380.515 653M374.452 634.773C375.981 633.845 377.493 632.932 378.959 632.05M370.452 637.209L380.515 653M378.959 632.05L389.452 650.05L387.952 657L402.088 679.5M378.959 632.05C380.439 631.161 381.872 630.304 383.228 629.5M402.088 679.5L406.179 677M406.179 677L403.705 673M406.179 677L409.952 674.694M406.179 677L416.952 696M412.952 640.5H417.952M412.952 640.5L411.952 641.143M412.952 640.5L405.952 640.664M412.952 640.5V628M422.452 640.5V647.706M422.452 640.5V634.773M422.452 640.5H421.952M422.452 667V656M422.452 667V671.944M394.117 657.5L391.952 654L395.952 651.429M394.117 657.5L417.952 642M394.117 657.5L396.282 661M417.952 642L420.952 645.804M417.952 642V640.664M417.952 640.5V640.664M417.952 640.5H421.952M422.452 647.706L420.952 645.804M422.452 647.706V651M396.282 661L420.952 645.804M396.282 661L398.952 665.316M398.952 665.316L422.452 651M398.952 665.316L401.231 669M422.452 651V656M422.452 651L428.452 647.421M401.231 669L403.705 673M401.231 669L409.393 664M422.452 656L421.636 656.5M403.705 673L411.952 668M411.952 668L409.393 664M411.952 668L414.452 671.944M409.393 664L413.422 661.531M409.393 664L399.952 648.857M414.452 671.944L409.952 674.694M411.952 641.143L421.636 656.5M411.952 641.143L407.508 644M421.636 656.5L417.452 659.063M407.508 644L417.452 659.063M407.508 644L404.012 646.247M417.452 659.063L413.422 661.531M404.012 646.247L413.422 661.531M404.012 646.247L399.952 648.857M404.012 646.247L400.732 640.787M399.952 648.857L395.952 651.429M395.952 651.429L409.952 674.694M393.952 629.5L349.786 657.5M393.952 629.5C394.971 629 397.854 628 401.231 628M393.952 629.5L397.452 635.327M349.786 657.5L352.782 662.5M401.231 628H405.952M401.231 628V634.773M401.231 628V622.142M422.452 628V634.773M422.452 628H417.702M422.452 628V608.5M422.452 628H428.452M352.782 662.5L397.452 635.327M352.782 662.5L356.077 668M397.452 635.327C397.305 635.142 397.854 634.773 401.231 634.773M397.452 635.327L400.732 640.787M401.231 634.773H422.452M422.452 634.773H449.601M400.732 640.787L405.952 640.664M405.952 628V640.664M405.952 628H412.952M405.952 628V614.5M412.952 628H417.702M412.952 628V615.5M417.702 628L417.952 640.664M417.702 628V622.142M387.452 627.023C386.169 627.765 384.747 628.6 383.228 629.5M356.077 668L359.452 673.633M359.452 673.633L379.716 661M379.716 661L384.452 658M379.716 661L382.084 664.723M377.452 630.629L390.452 614.5H402.488M366.475 614L383.228 629.5M402.488 614.5C402.111 615.073 401.692 615.672 401.231 616.285M402.488 614.5H412.952M529.452 701.5H475.952M381.952 701.5H387.952M381.952 701.5H376.218M381.952 701.5L384.679 706M387.952 701.5H392.452M392.452 701.5H397.452M392.452 701.5L391.952 718M397.452 701.5V719.5M397.452 701.5H402.088M376.218 701.5L422.452 671.944M376.218 701.5H373.335M422.452 671.944V677M422.452 671.944C423.619 670.296 428.252 667.1 437.452 667.5M422.452 701.5V696M422.452 701.5H416.952M422.452 701.5H433.452M402.088 690.5L422.452 677M422.452 677V678M406.179 697.5L422.452 687.674M422.452 687.674V696M422.452 687.674V687.222M416.952 696H422.452M416.952 696V701.5M416.952 701.5H402.088M422.452 678V682.837M422.452 678H426.952M475.952 678V687.674M475.952 678V667.5M475.952 678H466.952M437.452 678V682.837M437.452 678H432.952M437.452 678H446.452M437.452 678V667.5M437.452 701.5V696M437.452 701.5H451.952M437.452 701.5H434.952M422.452 682.837H437.452M422.452 682.837V687.222M437.452 682.837V687.222M422.452 687.222H437.452M422.452 687.222L425.983 691.806M437.452 687.222V691.806M433.452 701.5L425.983 691.806M433.452 701.5H434.952M425.983 691.806H426.952M437.452 691.806V696M437.452 691.806H426.952M437.452 691.806H475.952M432.952 678V696H437.452M432.952 678H426.952M437.452 696H456.452M426.952 678V691.806M475.952 701.5V696M475.952 701.5H465.952M475.952 696V691.806M475.952 696H457.952M475.952 691.806V687.674M446.452 678V687.674H456.452M446.452 678H451.952M446.452 678V642M475.952 687.674H457.952M451.952 678V701.5M451.952 678H456.452M451.952 678V642M451.952 701.5H456.452M456.452 701.5V696M456.452 701.5H460.952M456.452 696H457.952M457.952 696V687.674M457.952 687.674H456.452M456.452 687.674V678M456.452 678H460.952M456.452 678V642M460.952 678V701.5M460.952 678H465.952M460.952 701.5H465.952M465.952 701.5V678M465.952 678H466.952M437.452 667.5V661M437.452 667.5H460.952M475.952 667.5V661M475.952 667.5H466.952M475.952 642V655.5M475.952 642H466.952M475.952 642V628M475.952 642H487.952M437.452 648.5V642.053L446.452 642M437.452 648.5H471.452V620.377M437.452 648.5V655.5M437.452 655.5H475.952M437.452 655.5V661M475.952 655.5V661M437.452 661H475.952M446.452 642H451.952M446.452 642V604M451.952 642H456.452M456.452 642H460.952M456.452 642V604M460.952 667.5V642M460.952 667.5H466.952M460.952 642H466.952M466.952 642V667.5M466.952 642V634.773M466.952 667.5V678M421.952 640.5H432.952M440.056 640.5C443.092 638.763 446.302 636.83 449.601 634.773M440.056 640.5L428.452 647.421M440.056 640.5H437.452M451.952 599.5H456.452M451.952 599.5V578.5M493.952 602C492.82 603.981 490.699 606.139 487.952 608.438M493.952 602L536.952 559.5L580.952 515.5M493.952 602H489.452M422.452 604V608.5M422.452 604H432.952M422.452 604H417.702M422.452 604V579M422.452 608.5H417.952V610H413.422L412.952 611M422.452 608.5H426.952M432.952 608.5V604M432.952 608.5H448.952M432.952 608.5H426.952M432.952 604V615.5M432.952 604H437.452M432.952 640.5V615.5M432.952 640.5H437.452M432.952 640.5V644.5M460.138 628C456.594 630.337 453.049 632.623 449.601 634.773M460.138 628H428.452M460.138 628C463.952 625.484 467.764 622.909 471.452 620.377M460.138 628H475.952M449.601 634.773H466.952M428.452 628V647.421M412.952 611V614.5M417.702 604V615.5M417.702 604V575M401.231 616.285V622.142M412.952 614.5V615.5M401.231 622.142H417.702M417.702 622.142V615.5M412.952 615.5H417.702M432.952 615.5H471.452M437.452 604V640.5M437.452 604H446.452M437.452 604V556.5M446.452 604V596.5M456.452 599.5V604M456.452 599.5H457.452M466.952 634.773V599.5M466.952 599.5H471.452M466.952 599.5H462.452M456.452 604H475.952M475.952 604V602.5M475.952 604V617.273M475.952 617.273C475.127 617.844 474.292 618.42 473.452 619C472.79 619.457 472.123 619.916 471.452 620.377M475.952 617.273V628M475.952 617.273C480.437 614.17 484.648 611.203 487.952 608.438M471.452 599.5H475.952V602H487.952M471.452 599.5V620.377M475.952 628H541.952M340.452 655C343.676 658.333 346.452 661 351.452 671L357.254 680.314M391.952 680.236L367.026 696L364.413 691.806M391.952 680.236L389.452 676.306M364.413 691.806L389.452 676.306M364.413 691.806L362.094 688.083M389.452 676.306L387.031 672.5M362.094 688.083L387.031 672.5M362.094 688.083L359.654 684.167M387.031 672.5L384.452 668.446M359.654 684.167L384.452 668.446M359.654 684.167L357.254 680.314M384.452 668.446L382.084 664.723M357.254 680.314L382.084 664.723M300.452 626.5L287.952 613.086L279.452 602.5M300.452 626.5L303.952 629.651M330.952 648.857L323.952 646.247L320.952 644.956L317.452 641.805M330.952 648.857L326.452 642.889M330.952 648.857L342.452 664L348.952 673.633L365.952 701.5H373.335M279.452 602.5L282.085 604.381M279.452 602.5L277.452 600.155M303.952 629.651L307.117 632.5M310.452 628.5L307.117 632.5M307.117 632.5L310.952 635.953M310.952 635.953L313.952 638.654M313.952 638.654L317.452 641.805M320.04 604L348.452 604.381M392.952 599H333.952M392.952 591.5H329.452M344.452 585.5H392.952M248.452 566.155L220.452 533L220 415M248.452 566.155L267.452 578H272.452M248.452 566.155L272.452 594.293M373.452 577.5L384.952 575L390.452 571L392.952 568.857M373.452 577.5V579H378.452M373.452 577.5L348.452 577.862M425.452 477.5V504M425.452 477.5H403.452M425.452 477.5H426.952V457M425.452 532L424.452 536V547M425.452 532H429.452M425.452 532V516M423.452 575L424.452 571.5V565.5M423.452 575H422.452M423.452 575H425.952M422.452 575V579M422.452 575H420.952M422.452 579H387.452M422.452 579H432.952M348.452 577.862L338.952 578H324.952M348.452 577.862V604.381M348.452 604.381L378.452 604.789M353.952 565V610.522M353.952 610.522L358.452 610.559M358.452 571.5H357.452L348.452 556V537L350.952 529.5V507.5L338.952 480.5L332.452 472L324.452 467L317.452 463L314.452 460.5L309.452 456.5L299.452 449.5L284.452 440.5L274.452 435.5L263.452 432.5L251.452 427L238.452 415.5C232.452 407.9 223.651 412 220 415M358.452 571.5V610.559M358.452 571.5H362.952M362.952 571.5V610.596M362.952 571.5H367.452M362.952 610.596L367.452 610.633M367.452 571.5V610.633M367.452 571.5H372.452M372.452 571.5H373.452L399.952 538.5L400.452 520L393.864 513M372.452 571.5V610.673M378.452 579V604.789M378.452 579H383.228M378.452 604.789L383.228 604.854M383.228 579V604.854M383.228 579H387.452M383.228 604.854L387.452 604.912M387.452 579V604.912M324.952 610.286C324.952 609.457 324.952 595.714 324.952 585M324.952 578H320.452M324.952 578C324.952 580.008 324.952 582.416 324.952 585M321.452 591.5H324.952H329.452M329.452 591.5V610.322M320.452 578V583V584L321.952 585H324.952M320.452 578H301.452M291.452 578H286.452M291.452 578H301.452M291.452 578V597.5M291.452 610.012V597.5M286.452 578V607.5M286.452 578H282.085M286.452 607.5L282.085 604.381M282.085 604.381V578M282.085 578H277.452M277.452 578V600.155M277.452 578H272.452M277.452 600.155L272.452 594.293M272.452 578V585.5M272.452 594.293V585.5M272.452 585.5H296.952M301.452 578V585.5H296.952M296.952 597.5H291.452M296.952 597.5C296.952 599.443 296.952 602.294 296.952 604.789M296.952 597.5H300.702M296.952 597.5V585.5M304.452 604.789H306.452V597.5H300.702M304.452 604.789H296.952M300.702 610.088V597.5M429.452 532V547M429.452 532V521.5M424.452 565.5H429.452M424.452 565.5V556M424.452 565.5H412.452M429.452 565.5V575H425.952M429.452 565.5V556M429.452 565.5H434.452L435.952 567H441.952L443.452 565.5H444.702M424.452 556H429.452M424.452 556V547M424.452 556H416.952M429.452 556V547M429.452 556L432.952 556.5M424.452 547H429.452M424.452 547H420.702M429.452 521.5H432.952V516M429.452 521.5L429.202 504M429.452 521.5H421.452V512H419.952V497M432.952 516H425.452M432.952 516V509M432.952 516H435.952M448.452 516V520L451.952 525V526.5M448.452 516V508C448.619 507.167 448.052 505.2 444.452 504H435.952M448.452 516H441.952M451.952 556.5H444.702M451.952 556.5V561M451.952 556.5V556M432.952 556.5V579M432.952 556.5H437.452M425.452 504V509M425.452 504H429.202M432.952 504V509M432.952 504H429.202M432.952 504V497M432.952 504H435.952M425.452 516V509M425.452 509H432.952M432.952 509H435.952V504M432.952 497V488H419.952V497M432.952 497H419.952M432.952 497H435.952M433.452 490H435.952M440.452 490H435.952M435.952 490V497M435.952 497V504M416.952 575V556M416.952 575H414.702M416.952 575H417.702M420.952 575L420.702 547M420.952 575H417.702M420.702 547H416.952V556M416.952 556H412.452V565.5M412.452 565.5V575M412.452 575H410.952M412.452 575H414.702M394.952 575H395.452M395.452 575L395.649 610.895M395.452 575H401.231M395.649 610.895L401.231 610.962M395.649 610.895L392.952 610.863M401.231 575V585.5M401.231 575H406.091M401.231 610.962V598.231M410.952 575L398.952 556.5C396.552 555.3 394.619 558.667 393.952 560.5V568L392.952 568.857M410.952 575H406.091M410.952 575L410.712 605M392.952 610.863C392.952 610.548 392.952 582.728 392.952 568.857M451.952 579H441.132M401.231 585.5H451.952H462.452M401.231 585.5V598.231M401.452 592H451.952H462.452M401.231 598.231H410.952L415.452 596.5H425.952M451.952 596.5H448.952M406.091 575L406.616 607.5M406.616 607.5C407.583 606.588 408.917 605.696 410.712 605M425.952 575V596.5M425.952 596.5H426.952M426.952 596.5V608.5M426.952 596.5H432.952M432.952 596.5V579M432.952 596.5H444.702M432.952 579H440.452M437.452 556.5H441.952M444.702 556.5V561M444.702 556.5H441.952M444.702 596.5H446.452M444.702 596.5V574.5M446.452 596.5H448.952M444.702 574.5H448.952M444.702 574.5V568.857M451.952 574.5H448.952M451.952 574.5V568.857M451.952 574.5H462.452M451.952 574.5V578.5M448.952 574.5V596.5M444.702 568.857H451.952M444.702 568.857V565.5M451.952 568.857V565.5M444.702 565.5H451.952M444.702 565.5V561M451.952 565.5V561M451.952 565.5H462.452M444.702 561H451.952M441.132 615.741V579M441.132 579H440.452M440.452 579V562L441.952 560.5V556.5M451.952 526.5H457.452M451.952 526.5V536M462.452 599.5H457.452M462.452 599.5V592M457.452 599.5V526.5M457.452 526.5H462.452V536M451.952 536H462.452M451.952 536V545.5M462.452 536V545.5M451.952 545.5H462.452M451.952 545.5V556M462.452 545.5V556M451.952 556H462.452M462.452 556V565.5M462.452 565.5V574.5M462.452 574.5V578.5M451.952 578.5H462.452M462.452 578.5V585.5M462.452 585.5V592M435.952 516V511.5H441.952V516M435.952 516H441.952M541.952 642H487.952M487.952 621.5H544.452M487.952 642V608.438M487.952 602V608.438M487.952 602H489.452M489.452 602V563.5L492.952 558L492.452 502L490.452 499V482.5L483.952 473.111M481.452 444V469.5L483.952 473.111M373.335 701.5V706M373.335 752V719.5M373.335 752H377.452M373.335 752V762.5M391.952 718L384.679 706M391.952 718L392.452 752M373.335 710.5V715M373.335 710.5V706M373.335 710.5H406.179M410.952 715V710.5H406.179M410.952 715H373.335M410.952 715H416.952M410.952 715V733.5M373.335 715V719.5M434.952 715V719.5M434.952 715H426.952M434.952 715V704M434.952 701.5V704M220 383V415M483.952 473.111L466.452 489H459.952V493V497.5L435.952 476V464M435.952 457V464M435.952 457L433.252 452.5M435.952 457H426.952M420.952 432L431.952 410M420.952 432L420.452 430.5H419.452H417.952L416.952 432L399.452 464H403.452M420.952 432L403.452 464M420.952 432L423.952 437M403.452 477.5H394.952L391.952 483.5L392.452 511.5L393.864 513M403.452 477.5V464M403.452 464H408.952M435.952 464H408.952M423.952 437L418.119 447.5M423.952 437L430.252 447.5M408.952 464L412.841 457M408.952 464L407.952 513H393.864M412.841 457L415.341 452.5M412.841 457H426.952M433.252 452.5H415.341M433.252 452.5L430.252 447.5M415.341 452.5L418.119 447.5M418.119 447.5H430.252M373.335 706H383.452M384.679 706H383.452M373.335 719.5H377.452M383.452 706V719.5H377.452M377.452 752V719.5M377.452 752H392.452M392.452 752V762.5M416.952 733.5V728.875M416.952 733.5H410.952M416.952 733.5H426.952M416.952 715V724.25M416.952 715H426.952M434.952 733.5V719.5M434.952 733.5H426.952M434.952 733.5C434.452 735.333 434.952 740.1 440.952 744.5C446.952 748.9 447.785 759.667 447.452 764.5L448.452 775.5L449.452 815.9M434.952 719.5H397.452M397.452 719.5V724.5M397.452 724.5V733.5H402.088M397.452 724.5L416.952 724.25M416.952 724.25V728.875M402.088 701.5V729M402.088 733.5V729M402.088 733.5H406.179M402.088 729L416.952 728.875M406.179 710.5V733.5M406.179 733.5H410.952M426.952 715V733.5M392.452 762.5V763.5V785.5M392.452 762.5H377.452M373.335 762.5V808.5L373.452 819.5M373.335 762.5H377.452M373.335 762.5H370.452V785.5M377.452 762.5V808.5M377.452 808.5H370.452V785.5M377.452 808.5V819.5M370.452 785.5H392.452M392.452 785.5V819.5M392.452 785.5H403.452M392.452 819.5H377.452M392.452 819.5H403.452M367.026 819.5H373.452M373.452 819.5H377.452M420.452 819.5H412.952M403.452 819.5H408.452M403.452 819.5V808.5M403.452 785.5H408.452M403.452 785.5V808.5M408.452 785.5H420.452C422.952 784.167 429.652 785.4 436.452 801L439.952 808.5H444.452L449.452 815.9M408.452 785.5V808.5M408.452 819.5H412.952M408.452 819.5V808.5M412.952 819.5V808.5H408.452M403.452 808.5H408.452M481.452 931L479.702 921M479.702 921L467.452 851L464.452 839.5L456.952 827L449.452 815.9M479.702 921C486.202 920.667 497.252 917.9 489.452 909.5C488.285 908.167 488.252 904.8 497.452 902L500.952 891V883V857V843.5L501.952 841.5L504.952 839.5H507.952H509.452M510.952 839.5L448.452 718L445.952 715L434.952 704M510.952 839.5L526.952 870C530.952 872 538.952 879.8 538.952 895L542.508 911M510.952 839.5H509.452M510.952 839.5L511.452 837L511.952 832.5V817L505.452 802V775.5V772L507.952 765M544.952 922.34L542.952 913L542.508 911M544.952 922.34H529.952M544.952 922.34L549.341 930M552.452 938.5C552.789 939.512 553.323 941.087 553.82 942.5M552.452 938.5L550.952 934M552.452 938.5L529.678 938.25M552.452 938.5H568.685M607.952 1131.5L606.452 1052.5V1041L596.381 1021.5M536.452 957.692C536.852 956.492 536.619 949.833 536.452 948L539.369 945.5M545.952 951.5L539.952 945L539.369 945.5M545.952 951.5L551.706 971M545.952 951.5H558.952M544.452 982H554.952L553.82 978.162M544.452 982L541.984 974.5M544.452 982H558.952M544.452 982L557.452 1021.5H559.452M582.407 982C582.234 980.642 582.028 979.364 581.792 978.162M582.407 982H578.452M582.407 982C582.577 983.338 582.715 984.754 582.815 986.25M560.472 951.5C558.103 949.087 555.257 946.11 554.952 945.5C554.755 945.105 554.305 943.88 553.82 942.5M560.472 951.5C561.208 952.25 561.899 952.947 562.452 953.5L568.685 959M560.472 951.5H558.952M531.452 942.5H539.452M531.452 942.5L529.678 938.25M531.452 942.5L537.87 962M553.82 942.5H539.452M553.82 942.5H568.685M539.452 942.5L539.369 945.5M539.452 942.5L539.382 922.34M509.452 839.5L509.952 891L518.302 911M541.984 974.5H580.927M541.984 974.5L540.676 970.527M580.927 974.5C580.571 973.229 580.179 972.065 579.762 971M580.927 974.5C581.245 975.634 581.536 976.853 581.792 978.162M551.706 971H579.762M551.706 971L553.82 978.162M551.706 971L540.676 970.527M579.762 971C579.081 969.263 578.332 967.791 577.552 966.554M553.82 978.162H581.792M558.952 951.5V962M558.952 951.5L559.123 926M558.952 982V966.554M558.952 982H568.685M558.952 982L559.123 995.5M527.904 934H550.952M527.904 934L523.103 922.5M527.904 934L529.678 938.25M550.952 934L549.952 931L549.341 930M550.952 934H568.685M523.103 922.5L529.952 922.34M523.103 922.5L518.302 911M529.952 922.34L529.678 938.25M518.302 911H542.508M537.87 962H558.952M537.87 962L539.369 966.554M558.952 962V966.554M539.369 966.554H558.952M539.369 966.554L540.676 970.527M558.952 966.554H577.552M577.552 966.554C575.281 962.95 572.758 961.347 570.952 961L568.685 959M568.685 959V982M568.685 982H578.452M568.685 982V986.25M596.381 1021.5L582.952 995.5C583.058 992.119 583.002 989.043 582.815 986.25M596.381 1021.5H578.452M559.452 1021.5H568.685M559.452 1021.5L559.123 995.5M568.685 1021.5H578.452M568.685 1021.5V995.5M578.452 982V986.25M578.452 1021.5V994.5M559.123 995.5H568.685M568.685 995.5V994.5M568.685 994.5H578.452M568.685 994.5V990.5M578.452 994.5V990.5M568.685 990.5H578.452M568.685 990.5V986.25M578.452 990.5V986.25M568.685 986.25H578.452M578.452 986.25H582.815M549.341 930H568.685" stroke="#FFFCFC" stroke-width="0.5" shape-rendering="crispEdges"/>
</g>
<circle cx="306.5" cy="432.5" r="3.5" fill="#F6FE02"/>
<circle cx="286.5" cy="418.5" r="3.5" fill="#F6FE02"/>
<circle cx="392.5" cy="611.5" r="3.5" fill="#F6FE02"/>
<circle cx="424.5" cy="635.5" r="3.5" fill="#F6FE02"/>
<circle cx="384.5" cy="756.5" r="3.5" fill="#F6FE02"/>
<circle cx="379.5" cy="768.5" r="3.5" fill="#F6FE02"/>
<circle cx="362.5" cy="675.5" r="3.5" fill="#F6FE02"/>
<circle cx="354.5" cy="661.5" r="3.5" fill="#F6FE02"/>
<circle cx="368.5" cy="666.5" r="3.5" fill="#F6FE02"/>
<circle cx="318.5" cy="627.5" r="3.5" fill="#F6FE02"/>
<circle cx="388.5" cy="620.5" r="3.5" fill="#F6FE02"/>
<circle cx="300.5" cy="589.5" r="3.5" fill="#F6FE02"/>
<g filter="url(#filter6_d_39_825)">
<path d="M427.5 867L241.5 868.5M241.5 868.5C238.333 870.667 232.2 877.7 233 888.5C233 890.833 231.7 896.5 226.5 900.5L222 903.8M241.5 868.5C239.667 869.167 235.7 870.3 234.5 869.5L229.5 861.5H226.5V866H223V859H219V847M219 906H203.5M219 906L203.5 923.922M219 906L222 903.8M203 924.5H197.5M203 924.5L203.5 923.922M203 924.5H212.5M148.5 904V924.5H154.5M148.5 904H144M148.5 904H153.75M184 906H183.5V904H179M184 906H188M184 906V914.5M184 924.5H188M184 924.5V914.5M184 924.5H179M188 906V924.5M188 906H193M188 924.5H193M193 924.5V906M193 924.5H197.5M193 906H197.5M197.5 924.5V906M197.5 906H203.5M197.5 906V885.5M203.5 906V923.922M203.5 906L203.25 847M219.5 914.5H212.5M184 914.5H174M184 914.5H212.5M174 914.5V924.5M174 914.5V875.5M174 924.5H179M174 924.5H163.5M179 904V924.5M179 904H168.5M154.5 904V924.5M154.5 904H153.75M154.5 904H159M154.5 924.5H163.5M163.5 904V924.5M163.5 904H168.5M163.5 904V875.5M163.5 904H159M197.5 875.5V885.5M197.5 875.5H199M197.5 875.5H195.5M205.5 875.5L208 879.5M205.5 875.5L207 872.5V816M205.5 875.5H199M144 875.5V884M144 875.5H153.75M144 875.5H139.5M144 875.5V868.5L148.5 864.5H184M144 904V884M144 904H125V894.5M144 904V913.5H141.75M144 884H174V885.5H197.5M144 884H135M197.5 885.5H208M174 875.5H168.5M174 875.5H175M168.5 875.5V904M168.5 875.5H163.5M163.5 875.5H154.5M153.75 875.5V904M153.75 875.5H154.5M125 894.5H223V887V885.5H217.5H210M125 894.5V884M125 884V875.5H130M125 884H130M130 875.5V884M130 875.5H135M130 884H135M135 875.5V884M135 875.5H139.5M139.5 875.5V913.5H141.75M141.75 913.5V934H159M222 903.8V919M222 924.5V934H159M222 924.5V919M222 924.5H212.5M222 919H212.5M212.5 914.5V924.5M208 879.5L211 874V816M208 879.5V885.5M207 816H215L217.5 816.5L219 819.5V847M207 816H194.5M199 875.5V847M195.5 875.5V847M195.5 875.5H191.5M194.5 816V806M194.5 816H190M190 788V786L199 776L203 779.5V786H194.5V800M190 788H185.5M190 788V816M185.5 788V784M185.5 788V815.5M185.5 784H187.5L189.945 779.11M185.5 784V779H190L189.945 779.11M189.945 779.11V777M189.945 777L194.5 772.5V770L189.945 765M189.945 777V772.5M189.945 765H185.5M189.945 765V772.5M171 765L180.5 757H182M171 765V772.5M171 765H175M185.5 765V757H182M185.5 765H182M182 757V765M182 765H181M181 765V785.5M181 765H175M181 815.5V785.5M181 815.5H175M181 815.5H165M181 815.5H185.5M165 815.5H170M165 815.5V806M189.945 772.5H171M171 772.5H170.5M170.5 772.5H166.5V785.5M170.5 772.5V785.5M170.5 785.5H181M170.5 785.5H170M166.5 785.5V793.5H165V800M166.5 785.5H170M170 785.5V815.5M170 815.5H175M175 815.5V765M165 800H194.5M165 800V806M194.5 800V806M165 806H194.5M185.5 815.5H187.5L189.5 816H190M184 864.5V855.5M184 864.5V875.5M184 855.5H169.25M184 855.5V845.5M154.5 855.5V845.5M154.5 855.5H169.25M154.5 855.5V875.5M154.5 845.5L157 841.5V835.5M154.5 845.5H159M184 845.5V838.5M184 845.5H159M157 835.5V825.5H169.25M157 835.5H174L176 838.5H184M184 838.5V825.5C187.167 825.5 193.9 825.5 195.5 825.5H179M179 875.5V825.5M179 875.5H175M179 875.5H184M179 825.5H174M174 825.5L175 875.5M174 825.5H169.25M169.25 855.5V825.5M184 847H187.75M219 847H215M159 845.5V904M159 904V934M191.5 847V875.5M191.5 847H187.75M191.5 847H203.25M191.5 875.5H188M187.75 847L188 875.5M188 875.5H184M215 847V876H212.5L210 881V885.5M215 847H203.25M210 885.5H208" stroke="#FFFCFC" stroke-width="0.5" shape-rendering="crispEdges"/>
</g>
<defs>
<filter id="filter0_f_39_825" x="0.8" y="322.8" width="693.2" height="811.9" filterUnits="userSpaceOnUse" color-interpolation-filters="sRGB">
<feFlood flood-opacity="0" result="BackgroundImageFix"/>
<feBlend mode="normal" in="SourceGraphic" in2="BackgroundImageFix" result="shape"/>
<feGaussianBlur stdDeviation="0.6" result="effect1_foregroundBlur_39_825"/>
</filter>
<filter id="filter1_f_39_825" x="97.1926" y="0.8" width="601.4" height="472.542" filterUnits="userSpaceOnUse" color-interpolation-filters="sRGB">
<feFlood flood-opacity="0" result="BackgroundImageFix"/>
<feBlend mode="normal" in="SourceGraphic" in2="BackgroundImageFix" result="shape"/>
<feGaussianBlur stdDeviation="0.6" result="effect1_foregroundBlur_39_825"/>
</filter>
<filter id="filter2_d_39_825" x="323" y="1.99023" width="268.816" height="1139.16" filterUnits="userSpaceOnUse" color-interpolation-filters="sRGB">
<feFlood flood-opacity="0" result="BackgroundImageFix"/>
<feColorMatrix in="SourceAlpha" type="matrix" values="0 0 0 0 0 0 0 0 0 0 0 0 0 0 0 0 0 0 127 0" result="hardAlpha"/>
<feOffset dy="4"/>
<feGaussianBlur stdDeviation="2"/>
<feComposite in2="hardAlpha" operator="out"/>
<feColorMatrix type="matrix" values="0 0 0 0 0 0 0 0 0 0 0 0 0 0 0 0 0 0 0.25 0"/>
<feBlend mode="normal" in2="BackgroundImageFix" result="effect1_dropShadow_39_825"/>
<feBlend mode="normal" in="SourceGraphic" in2="effect1_dropShadow_39_825" result="shape"/>
</filter>
<filter id="filter3_d_39_825" x="324.4" y="0.390234" width="266.016" height="1136.36" filterUnits="userSpaceOnUse" color-interpolation-filters="sRGB">
<feFlood flood-opacity="0" result="BackgroundImageFix"/>
<feColorMatrix in="SourceAlpha" type="matrix" values="0 0 0 0 0 0 0 0 0 0 0 0 0 0 0 0 0 0 127 0" result="hardAlpha"/>
<feOffset dy="1"/>
<feGaussianBlur stdDeviation="1.3"/>
<feComposite in2="hardAlpha" operator="out"/>
<feColorMatrix type="matrix" values="0 0 0 0 0 0 0 0 0 0 0 0 0 0 0 0 0 0 0.25 0"/>
<feBlend mode="normal" in2="BackgroundImageFix" result="effect1_dropShadow_39_825"/>
<feBlend mode="normal" in="SourceGraphic" in2="effect1_dropShadow_39_825" result="shape"/>
</filter>
<filter id="filter4_d_39_825" x="108.75" y="143.75" width="562.75" height="326.253" filterUnits="userSpaceOnUse" color-interpolation-filters="sRGB">
<feFlood flood-opacity="0" result="BackgroundImageFix"/>
<feColorMatrix in="SourceAlpha" type="matrix" values="0 0 0 0 0 0 0 0 0 0 0 0 0 0 0 0 0 0 127 0" result="hardAlpha"/>
<feOffset dy="4"/>
<feGaussianBlur stdDeviation="1"/>
<feComposite in2="hardAlpha" operator="out"/>
<feColorMatrix type="matrix" values="0 0 0 0 0 0 0 0 0 0 0 0 0 0 0 0 0 0 0.25 0"/>
<feBlend mode="normal" in2="BackgroundImageFix" result="effect1_dropShadow_39_825"/>
<feBlend mode="normal" in="SourceGraphic" in2="effect1_dropShadow_39_825" result="shape"/>
</filter>
<filter id="filter5_d_39_825" x="215.75" y="383" width="396.452" height="756.505" filterUnits="userSpaceOnUse" color-interpolation-filters="sRGB">
<feFlood flood-opacity="0" result="BackgroundImageFix"/>
<feColorMatrix in="SourceAlpha" type="matrix" values="0 0 0 0 0 0 0 0 0 0 0 0 0 0 0 0 0 0 127 0" result="hardAlpha"/>
<feOffset dy="4"/>
<feGaussianBlur stdDeviation="2"/>
<feComposite in2="hardAlpha" operator="out"/>
<feColorMatrix type="matrix" values="0 0 0 0 0 0 0 0 0 0 0 0 0 0 0 0 0 0 0.25 0"/>
<feBlend mode="normal" in2="BackgroundImageFix" result="effect1_dropShadow_39_825"/>
<feBlend mode="normal" in="SourceGraphic" in2="effect1_dropShadow_39_825" result="shape"/>
</filter>
<filter id="filter6_d_39_825" x="120.75" y="756.75" width="310.752" height="185.5" filterUnits="userSpaceOnUse" color-interpolation-filters="sRGB">
<feFlood flood-opacity="0" result="BackgroundImageFix"/>
<feColorMatrix in="SourceAlpha" type="matrix" values="0 0 0 0 0 0 0 0 0 0 0 0 0 0 0 0 0 0 127 0" result="hardAlpha"/>
<feOffset dy="4"/>
<feGaussianBlur stdDeviation="2"/>
<feComposite in2="hardAlpha" operator="out"/>
<feColorMatrix type="matrix" values="0 0 0 0 0 0 0 0 0 0 0 0 0 0 0 0 0 0 0.25 0"/>
<feBlend mode="normal" in2="BackgroundImageFix" result="effect1_dropShadow_39_825"/>
<feBlend mode="normal" in="SourceGraphic" in2="effect1_dropShadow_39_825" result="shape"/>
</filter>
</defs>
</svg>
